<!--?xml version="1.0" standalone="no"?-->
              <svg id="sw-js-blob-svg" viewBox="0 0 100 100" xmlns="http://www.w3.org/2000/svg" version="1.1">
                    <defs> 
                        <linearGradient id="sw-gradient" x1="0" x2="1" y1="1" y2="0">
                            <stop id="stop1" stop-color="rgba(31, 251, 54, 1)" offset="0%"></stop>
                            <stop id="stop2" stop-color="rgba(31, 251, 54, 1)" offset="100%"></stop>
                        </linearGradient>
                    </defs>
                <path fill="url(#sw-gradient)" d="M27.3,-32.1C34,-27,36.9,-17,37.5,-7.5C38,2,36.3,10.9,32.2,19.1C28.1,27.2,21.6,34.5,13.7,37.2C5.7,39.9,-3.7,38.1,-13.2,35.2C-22.7,32.2,-32.2,28.2,-34.9,21.3C-37.5,14.4,-33.2,4.6,-30.4,-4.4C-27.6,-13.3,-26.3,-21.6,-21.5,-27C-16.7,-32.4,-8.3,-35,1,-36.2C10.3,-37.4,20.7,-37.2,27.3,-32.1Z" width="100%" height="100%" transform="translate(50 50)" stroke-width="0" style="transition: all 0.3s ease 0s;"></path>
              </svg>