<!--?xml version="1.0" standalone="no"?-->
              <svg id="sw-js-blob-svg" viewBox="0 0 100 100" xmlns="http://www.w3.org/2000/svg" version="1.1">
                    <defs> 
                        <linearGradient id="sw-gradient" x1="0" x2="1" y1="1" y2="0">
                            <stop id="stop1" stop-color="rgba(248, 117, 55, 1)" offset="0%"></stop>
                            <stop id="stop2" stop-color="rgba(251, 168, 31, 1)" offset="100%"></stop>
                        </linearGradient>
                    </defs>
                <path fill="url(#sw-gradient)" d="M18.5,-24.1C24.1,-17.3,28.8,-11.6,32.6,-3.7C36.3,4.1,39.2,14.2,35.3,20C31.5,25.7,21,27.2,11.8,29.1C2.7,30.9,-5.1,33.1,-11.2,30.8C-17.3,28.5,-21.7,21.8,-26.9,14.6C-32.1,7.4,-38.2,-0.2,-38.6,-8.3C-39,-16.5,-33.7,-25.2,-26.3,-31.6C-19,-38.1,-9.5,-42.3,-1.5,-40.5C6.5,-38.7,12.9,-30.9,18.5,-24.1Z" width="100%" height="100%" transform="translate(50 50)" stroke-width="0" style="transition: all 0.3s ease 0s;"></path>
              </svg>